<svg width="30" height="30" viewBox="0 0 30 30" fill="none" xmlns="http://www.w3.org/2000/svg">
<g clip-path="url(#clip0_1257_3375)">
<path d="M1.49968 16.5001H2.99968V27.0001C2.99968 28.6546 4.34518 30.0001 5.99968 30.0001H23.9997C25.6542 30.0001 26.9997 28.6546 26.9997 27.0001V16.5001H28.4997C28.7963 16.5 29.0863 16.412 29.3329 16.2472C29.5795 16.0823 29.7717 15.8481 29.8852 15.574C29.9987 15.3 30.0284 14.9984 29.9706 14.7075C29.9127 14.4166 29.7699 14.1493 29.5602 13.9396L16.0602 0.439557C15.921 0.300139 15.7557 0.189532 15.5737 0.114066C15.3917 0.0386 15.1967 -0.000244141 14.9997 -0.000244141C14.8027 -0.000244141 14.6076 0.0386 14.4256 0.114066C14.2437 0.189532 14.0784 0.300139 13.9392 0.439557L0.43918 13.9396C0.229466 14.1493 0.0866566 14.4166 0.0288052 14.7075C-0.0290461 14.9984 0.000658426 15.3 0.114163 15.574C0.227669 15.8481 0.419878 16.0823 0.666493 16.2472C0.913107 16.412 1.20305 16.5 1.49968 16.5001ZM11.9997 27.0001V19.5001H17.9997V27.0001H11.9997ZM14.9997 3.62106L23.9997 12.6211V19.5001L24.0012 27.0001H20.9997V19.5001C20.9997 17.8456 19.6542 16.5001 17.9997 16.5001H11.9997C10.3452 16.5001 8.99968 17.8456 8.99968 19.5001V27.0001H5.99968V12.6211L14.9997 3.62106Z" fill="#7D7757"/>
</g>
<defs>
<clipPath id="clip0_1257_3375">
<rect width="30" height="30" fill="white"/>
</clipPath>
</defs>
</svg>
