<svg width="33" height="30" viewBox="0 0 33 30" fill="none" xmlns="http://www.w3.org/2000/svg">
<g clip-path="url(#clip0_1257_3397)">
<path d="M8.71406 5.90925L7.03184 10.8023H25.9682L24.2859 5.90925C23.9959 5.0697 23.216 4.50562 22.3395 4.50562H10.6605C9.78398 4.50562 9.0041 5.0697 8.71406 5.90925ZM2.55234 11.1171L4.82109 4.5253C5.69121 2.00008 8.03086 0.307861 10.6605 0.307861H22.3395C24.9691 0.307861 27.3088 2.00008 28.1789 4.5253L30.4477 11.1171C31.943 11.7468 33 13.2488 33 15V27.5933C33 28.7543 32.0783 29.6922 30.9375 29.6922H28.875C27.7342 29.6922 26.8125 28.7543 26.8125 27.5933V24.445H6.1875V27.5933C6.1875 28.7543 5.26582 29.6922 4.125 29.6922H2.0625C0.92168 29.6922 0 28.7543 0 27.5933V15C0 13.2488 1.05703 11.7468 2.55234 11.1171ZM8.25 17.0989C8.25 16.5422 8.0327 16.0084 7.64591 15.6148C7.25911 15.2212 6.73451 15 6.1875 15C5.64049 15 5.11589 15.2212 4.72909 15.6148C4.3423 16.0084 4.125 16.5422 4.125 17.0989C4.125 17.6556 4.3423 18.1894 4.72909 18.583C5.11589 18.9767 5.64049 19.1978 6.1875 19.1978C6.73451 19.1978 7.25911 18.9767 7.64591 18.583C8.0327 18.1894 8.25 17.6556 8.25 17.0989ZM26.8125 19.1978C27.3595 19.1978 27.8841 18.9767 28.2709 18.583C28.6577 18.1894 28.875 17.6556 28.875 17.0989C28.875 16.5422 28.6577 16.0084 28.2709 15.6148C27.8841 15.2212 27.3595 15 26.8125 15C26.2655 15 25.7409 15.2212 25.3541 15.6148C24.9673 16.0084 24.75 16.5422 24.75 17.0989C24.75 17.6556 24.9673 18.1894 25.3541 18.583C25.7409 18.9767 26.2655 19.1978 26.8125 19.1978Z" fill="#7D7757"/>
</g>
<defs>
<clipPath id="clip0_1257_3397">
<rect width="33" height="30" fill="white"/>
</clipPath>
</defs>
</svg>
