<svg width="29" height="30" viewBox="0 0 29 30" fill="none" xmlns="http://www.w3.org/2000/svg">
<g clip-path="url(#clip0_1257_3380)">
<path d="M13.4643 10H15.5357V8.75C15.5357 8.41848 15.6448 8.10054 15.8391 7.86612C16.0333 7.6317 16.2967 7.5 16.5714 7.5H19.6786C19.9533 7.5 20.2167 7.6317 20.4109 7.86612C20.6052 8.10054 20.7143 8.41848 20.7143 8.75V10H24.8571V5C24.8571 3.67392 24.4207 2.40215 23.6437 1.46447C22.8668 0.526784 21.813 0 20.7143 0H8.28571C7.18696 0 6.13321 0.526784 5.35627 1.46447C4.57934 2.40215 4.14286 3.67392 4.14286 5V10H8.28571V8.75C8.28571 8.41848 8.39483 8.10054 8.58907 7.86612C8.7833 7.6317 9.04674 7.5 9.32143 7.5H12.4286C12.7033 7.5 12.9667 7.6317 13.1609 7.86612C13.3552 8.10054 13.4643 8.41848 13.4643 8.75V10ZM5.17857 12.5C3.80513 12.5 2.48794 13.1585 1.51677 14.3306C0.545598 15.5027 0 17.0924 0 18.75V28.75C0 29.0815 0.10912 29.3995 0.303354 29.6339C0.497588 29.8683 0.761026 30 1.03571 30C1.3104 30 1.57384 29.8683 1.76807 29.6339C1.96231 29.3995 2.07143 29.0815 2.07143 28.75V22.5H26.9286V28.75C26.9286 29.0815 27.0377 29.3995 27.2319 29.6339C27.4262 29.8683 27.6896 30 27.9643 30C28.239 30 28.5024 29.8683 28.6966 29.6339C28.8909 29.3995 29 29.0815 29 28.75V18.75C29 17.0924 28.4544 15.5027 27.4832 14.3306C26.5121 13.1585 25.1949 12.5 23.8214 12.5H5.17857Z" fill="#7D7757"/>
</g>
<defs>
<clipPath id="clip0_1257_3380">
<rect width="29" height="30" fill="white"/>
</clipPath>
</defs>
</svg>
