<svg width="28" height="30" viewBox="0 0 28 30" fill="none" xmlns="http://www.w3.org/2000/svg">
<g clip-path="url(#clip0_1257_3385)">
<path d="M20.8621 6.07146V4.58361C20.8621 3.79433 20.5006 3.03737 19.8573 2.47921C19.2139 1.92104 18.3412 1.60737 17.4313 1.60718H8.85255C7.94242 1.60718 7.06956 1.92076 6.426 2.47895C5.78245 3.03714 5.4209 3.79421 5.4209 4.58361V28.3929" stroke="#7D7757" stroke-width="4" stroke-linecap="round" stroke-linejoin="round"/>
<path d="M26.009 12.0237H15.7148V10.5358C15.7148 9.35182 16.2571 8.21631 17.2224 7.37909C18.1876 6.54188 19.4968 6.07153 20.8619 6.07153C22.227 6.07153 23.5362 6.54188 24.5014 7.37909C25.4667 8.21631 26.009 9.35182 26.009 10.5358V12.0237Z" stroke="#7D7757" stroke-width="4" stroke-linecap="round" stroke-linejoin="round"/>
<path d="M17.4314 20.9523V17.9766M1.99023 28.393H8.85271M24.2939 20.9523V17.9766" stroke="#7D7757" stroke-width="4" stroke-linecap="round" stroke-linejoin="round"/>
</g>
<defs>
<clipPath id="clip0_1257_3385">
<rect width="28" height="30" fill="white"/>
</clipPath>
</defs>
</svg>
