<svg width="35" height="30" viewBox="0 0 35 30" fill="none" xmlns="http://www.w3.org/2000/svg">
<path d="M0 5.15625C0 3.78873 0.50703 2.47721 1.40955 1.51023C2.31207 0.543246 3.53615 0 4.8125 0H30.1875C31.4639 0 32.6879 0.543246 33.5905 1.51023C34.493 2.47721 35 3.78873 35 5.15625V24.8438C35 25.5209 34.8755 26.1914 34.6337 26.817C34.3918 27.4425 34.0373 28.011 33.5905 28.4898C33.1436 28.9686 32.613 29.3484 32.0292 29.6075C31.4453 29.8666 30.8195 30 30.1875 30H4.8125C4.18051 30 3.55472 29.8666 2.97084 29.6075C2.38696 29.3484 1.85643 28.9686 1.40955 28.4898C0.962667 28.011 0.60818 27.4425 0.36633 26.817C0.124479 26.1914 0 25.5209 0 24.8438V5.15625ZM25.865 6.0375C25.6191 5.7737 25.2855 5.62533 24.9375 5.625H20.5625C20.2144 5.625 19.8806 5.77316 19.6344 6.03688C19.3883 6.3006 19.25 6.65829 19.25 7.03125C19.25 7.40421 19.3883 7.7619 19.6344 8.02562C19.8806 8.28934 20.2144 8.4375 20.5625 8.4375H21.77L18.76 11.6606C18.631 11.7894 18.5276 11.9446 18.4559 12.1171C18.3841 12.2896 18.3456 12.4758 18.3425 12.6646C18.3394 12.8535 18.3718 13.041 18.4378 13.2161C18.5038 13.3912 18.6021 13.5503 18.7267 13.6838C18.8513 13.8174 18.9998 13.9226 19.1632 13.9934C19.3266 14.0641 19.5017 14.0988 19.6779 14.0955C19.8541 14.0922 20.0279 14.0508 20.1889 13.974C20.3499 13.8971 20.4948 13.7863 20.615 13.6481L23.625 10.425V11.7188C23.625 12.0917 23.7633 12.4494 24.0094 12.7131C24.2556 12.9768 24.5894 13.125 24.9375 13.125C25.2856 13.125 25.6194 12.9768 25.8656 12.7131C26.1117 12.4494 26.25 12.0917 26.25 11.7188V7.03125C26.2497 6.65841 26.1112 6.30097 25.865 6.0375ZM10.0625 24.375H14.4393C14.7873 24.375 15.1212 24.2268 15.3673 23.9631C15.6135 23.6994 15.7518 23.3417 15.7518 22.9688C15.7518 22.5958 15.6135 22.2381 15.3673 21.9744C15.1212 21.7107 14.7873 21.5625 14.4393 21.5625H13.2317L16.2418 18.3375C16.4807 18.0722 16.6129 17.7169 16.6097 17.3482C16.6066 16.9794 16.4684 16.6268 16.2249 16.3662C15.9814 16.1056 15.6522 15.9579 15.308 15.9548C14.9639 15.9518 14.6324 16.0937 14.385 16.35L11.375 19.5712V18.2775C11.375 17.9045 11.2367 17.5469 10.9906 17.2831C10.7444 17.0194 10.4106 16.8713 10.0625 16.8713C9.7144 16.8713 9.38056 17.0194 9.13442 17.2831C8.88828 17.5469 8.75 17.9045 8.75 18.2775V22.965C8.75 23.338 8.88828 23.6956 9.13442 23.9594C9.38056 24.2231 9.7144 24.3712 10.0625 24.3712" fill="#7D7757"/>
</svg>
