<svg width="20" height="20" viewBox="0 0 20 20" fill="none" xmlns="http://www.w3.org/2000/svg">
<path d="M2.19177 12C2.19177 15.2 3.52589 17.9 6.28942 17.9H12.7694C15.6282 17.9 16.8671 15.2 16.8671 12" stroke="#7D7757" stroke-width="1.5" stroke-linecap="round" stroke-linejoin="round"/>
<path d="M17.9153 11.8999H1.14355" stroke="#7D7757" stroke-width="1.5" stroke-linecap="round" stroke-linejoin="round"/>
<path d="M15.5329 18.9999L14.9612 17.8999" stroke="#7D7757" stroke-width="1.5" stroke-linecap="round" stroke-linejoin="round"/>
<path d="M3.52588 18.9999L4.09764 17.8999" stroke="#7D7757" stroke-width="1.5" stroke-linecap="round" stroke-linejoin="round"/>
<path d="M6.57528 3.2C6.57528 2 5.52705 1 4.38352 1C3.23999 1 2.28705 2 2.28705 3.2V11.2" stroke="#7D7757" stroke-width="1.5" stroke-linecap="round" stroke-linejoin="round"/>
<path d="M9.24352 4.5999C8.86234 3.5999 8.0047 2.9999 7.33764 3.2999L6.00352 3.6999C5.33646 3.9999 5.05058 5.0999 5.33646 6.0999" stroke="#7D7757" stroke-width="1.5" stroke-linecap="round" stroke-linejoin="round"/>
<path d="M4.76471 6.4L9.72 4.5M12.2929 16.8C14.1988 16.8 15.2471 15.3 15.5329 13.4" stroke="#7D7757" stroke-width="1.5" stroke-linecap="round" stroke-linejoin="round"/>
</svg>
