<svg width="21" height="20" viewBox="0 0 21 20" fill="none" xmlns="http://www.w3.org/2000/svg">
<path d="M18.8973 14.7V19H16.385V16.8H4.60321V19H2.09091V14.7" stroke="#7D7757" stroke-width="1.5" stroke-linecap="round" stroke-linejoin="round"/>
<path d="M4.68985 1H16.2984" stroke="#7D7757" stroke-width="1.5" stroke-linecap="round" stroke-linejoin="round"/>
<path d="M16.2984 1C16.9048 1 17.4246 1.6 17.4246 2.3" stroke="#7D7757" stroke-width="1.5" stroke-linecap="round" stroke-linejoin="round"/>
<path d="M17.4246 2.30005V7.90005" stroke="#7D7757" stroke-width="1.5" stroke-linecap="round" stroke-linejoin="round"/>
<path d="M15.9519 7.6999V6.7999C15.9519 5.9999 15.3455 5.3999 14.739 5.3999H11.8802C11.1872 5.3999 10.6674 6.0999 10.6674 6.7999V7.3999" stroke="#7D7757" stroke-width="1.5" stroke-linecap="round" stroke-linejoin="round"/>
<path d="M10.4075 7.3999V6.7999C10.4075 5.9999 9.80109 5.3999 9.19467 5.3999H6.33584C5.64279 5.3999 5.03638 5.9999 5.03638 6.7999V7.5999" stroke="#7D7757" stroke-width="1.5" stroke-linecap="round" stroke-linejoin="round"/>
<path d="M3.56366 7.90005V2.30005" stroke="#7D7757" stroke-width="1.5" stroke-linecap="round" stroke-linejoin="round"/>
<path d="M3.56366 2.3C3.56366 1.6 4.08345 1 4.68986 1" stroke="#7D7757" stroke-width="1.5" stroke-linecap="round" stroke-linejoin="round"/>
<path d="M3.56364 8.29994C7.98182 7.49994 14.739 7.59994 17.5112 8.29994L18.984 14.3999H2.09091L3.56364 8.29994Z" stroke="#7D7757" stroke-width="1.5" stroke-linecap="round" stroke-linejoin="round"/>
</svg>
