<svg width="33" height="30" viewBox="0 0 33 30" fill="none" xmlns="http://www.w3.org/2000/svg">
<path d="M13.75 8.4375C13.75 6.94566 13.1705 5.51492 12.1391 4.46002C11.1076 3.40513 9.70869 2.8125 8.25 2.8125C6.79131 2.8125 5.39236 3.40513 4.36091 4.46002C3.32946 5.51492 2.75 6.94566 2.75 8.4375C2.75 9.92934 3.32946 11.3601 4.36091 12.415C5.39236 13.4699 6.79131 14.0625 8.25 14.0625C9.70869 14.0625 11.1076 13.4699 12.1391 12.415C13.1705 11.3601 13.75 9.92934 13.75 8.4375ZM16.2937 10.3125C15.463 14.0684 12.1745 16.875 8.25 16.875C3.69531 16.875 0 13.0957 0 8.4375C0 3.7793 3.69531 0 8.25 0C12.1745 0 15.463 2.80664 16.2937 6.5625H20.4073C20.9115 5.98828 21.6448 5.625 22.4583 5.625H28.4167C29.9349 5.625 31.1667 6.88477 31.1667 8.4375C31.1667 9.99023 29.9349 11.25 28.4167 11.25H22.4583C21.6448 11.25 20.9115 10.8867 20.4073 10.3125H16.2937ZM8.25 4.6875C9.22246 4.6875 10.1551 5.08259 10.8427 5.78585C11.5304 6.48911 11.9167 7.44294 11.9167 8.4375C11.9167 9.43206 11.5304 10.3859 10.8427 11.0892C10.1551 11.7924 9.22246 12.1875 8.25 12.1875C7.27754 12.1875 6.34491 11.7924 5.65727 11.0892C4.96964 10.3859 4.58333 9.43206 4.58333 8.4375C4.58333 7.44294 4.96964 6.48911 5.65727 5.78585C6.34491 5.08259 7.27754 4.6875 8.25 4.6875ZM22.9167 14.0625C23.6786 14.0625 24.2917 14.6895 24.2917 15.4688V15.9375H29.7917C30.5536 15.9375 31.1667 16.5645 31.1667 17.3438C31.1667 18.123 30.5536 18.75 29.7917 18.75H16.0417C15.2797 18.75 14.6667 18.123 14.6667 17.3438C14.6667 16.5645 15.2797 15.9375 16.0417 15.9375H21.5417V15.4688C21.5417 14.6895 22.1547 14.0625 22.9167 14.0625ZM16.5 27.1875V20.625H29.3333V27.1875C29.3333 28.7402 28.1016 30 26.5833 30H19.25C17.7318 30 16.5 28.7402 16.5 27.1875ZM2.75 18.75H10.0833C11.6016 18.75 12.8333 20.0098 12.8333 21.5625C12.8333 23.1152 11.6016 24.375 10.0833 24.375H9.16667C9.16667 25.4121 8.3474 26.25 7.33333 26.25H3.66667C2.6526 26.25 1.83333 25.4121 1.83333 24.375V19.6875C1.83333 19.1719 2.24583 18.75 2.75 18.75ZM10.0833 22.5C10.5875 22.5 11 22.0781 11 21.5625C11 21.0469 10.5875 20.625 10.0833 20.625H9.16667V22.5H10.0833ZM1.375 27.1875H11.4583C12.2203 27.1875 12.8333 27.8145 12.8333 28.5938C12.8333 29.373 12.2203 30 11.4583 30H1.375C0.613021 30 0 29.373 0 28.5938C0 27.8145 0.613021 27.1875 1.375 27.1875Z" fill="#7D7757"/>
</svg>
