<svg width="30" height="30" viewBox="0 0 30 30" fill="none" xmlns="http://www.w3.org/2000/svg">
<g clip-path="url(#clip0_935_4219)">
<path d="M13.9286 10H16.0714V8.75C16.0714 8.41848 16.1843 8.10054 16.3852 7.86612C16.5862 7.6317 16.8587 7.5 17.1429 7.5H20.3571C20.6413 7.5 20.9138 7.6317 21.1148 7.86612C21.3157 8.10054 21.4286 8.41848 21.4286 8.75V10H25.7143V5C25.7143 3.67392 25.2628 2.40215 24.459 1.46447C23.6553 0.526784 22.5652 0 21.4286 0H8.57143C7.43479 0 6.3447 0.526784 5.54097 1.46447C4.73724 2.40215 4.28571 3.67392 4.28571 5V10H8.57143V8.75C8.57143 8.41848 8.68431 8.10054 8.88524 7.86612C9.08617 7.6317 9.3587 7.5 9.64286 7.5H12.8571C13.1413 7.5 13.4138 7.6317 13.6148 7.86612C13.8157 8.10054 13.9286 8.41848 13.9286 8.75V10ZM5.35714 12.5C3.93634 12.5 2.57373 13.1585 1.56907 14.3306C0.564412 15.5027 0 17.0924 0 18.75V28.75C0 29.0815 0.112882 29.3995 0.313814 29.6339C0.514746 29.8683 0.787268 30 1.07143 30C1.35559 30 1.62811 29.8683 1.82904 29.6339C2.02997 29.3995 2.14286 29.0815 2.14286 28.75V22.5H27.8571V28.75C27.8571 29.0815 27.97 29.3995 28.171 29.6339C28.3719 29.8683 28.6444 30 28.9286 30C29.2127 30 29.4853 29.8683 29.6862 29.6339C29.8871 29.3995 30 29.0815 30 28.75V18.75C30 17.0924 29.4356 15.5027 28.4309 14.3306C27.4263 13.1585 26.0637 12.5 24.6429 12.5H5.35714Z" fill="#7D7757"/>
</g>
<defs>
<clipPath id="clip0_935_4219">
<rect width="30" height="30" fill="white"/>
</clipPath>
</defs>
</svg>
