<svg width="19" height="23" viewBox="0 0 19 23" fill="none" xmlns="http://www.w3.org/2000/svg">
<g clip-path="url(#clip0_812_6020)">
<path d="M10.8105 3.16659H3.86197C3.33544 3.16659 2.83047 3.38608 2.45816 3.77678C2.08584 4.16748 1.87668 4.69738 1.87668 5.24992V17.7499C1.87668 18.3025 2.08584 18.8324 2.45816 19.2231C2.83047 19.6138 3.33544 19.8333 3.86197 19.8333H10.8105M14.7811 3.16659H15.7737C16.3003 3.16659 16.8052 3.38608 17.1775 3.77678C17.5499 4.16748 17.759 4.69738 17.759 5.24992V6.29159M17.759 16.7083V17.7499C17.759 18.3025 17.5499 18.8324 17.1775 19.2231C16.8052 19.6138 16.3003 19.8333 15.7737 19.8333H14.7811M17.759 10.4583V12.5416M9.81785 1.08325V21.9166" stroke="#7D7757" stroke-width="2" stroke-linecap="round" stroke-linejoin="round"/>
</g>
<defs>
<clipPath id="clip0_812_6020">
<rect width="18" height="23" fill="white" transform="translate(0.929413)"/>
</clipPath>
</defs>
</svg>
