<svg width="28" height="30" viewBox="0 0 28 30" fill="none" xmlns="http://www.w3.org/2000/svg">
<g clip-path="url(#clip0_935_4233)">
<path d="M20.8621 6.07143V4.58358C20.8621 3.7943 20.5006 3.03734 19.8573 2.47918C19.2139 1.92101 18.3412 1.60734 17.4313 1.60715H8.85255C7.94242 1.60715 7.06956 1.92073 6.426 2.47892C5.78245 3.03711 5.4209 3.79418 5.4209 4.58358V28.3929" stroke="#7D7757" stroke-width="4" stroke-linecap="round" stroke-linejoin="round"/>
<path d="M26.009 12.0236H15.7148V10.5357C15.7148 9.35173 16.2571 8.21622 17.2224 7.379C18.1876 6.54178 19.4968 6.07144 20.8619 6.07144C22.227 6.07144 23.5362 6.54178 24.5014 7.379C25.4667 8.21622 26.009 9.35173 26.009 10.5357V12.0236Z" stroke="#7D7757" stroke-width="4" stroke-linecap="round" stroke-linejoin="round"/>
<path d="M17.4314 20.9522V17.9764M1.99023 28.3929H8.85271M24.2939 20.9522V17.9764" stroke="#7D7757" stroke-width="4" stroke-linecap="round" stroke-linejoin="round"/>
</g>
<defs>
<clipPath id="clip0_935_4233">
<rect width="28" height="30" fill="white"/>
</clipPath>
</defs>
</svg>
