<svg width="26" height="24" viewBox="0 0 26 24" fill="none" xmlns="http://www.w3.org/2000/svg">
<path d="M12.9155 1.91316C14.3439 0.635229 16.2075 -0.0473085 18.1234 0.00569269C20.0394 0.0586938 21.8623 0.843212 23.218 2.19816C24.5721 3.55215 25.3571 5.37284 25.412 7.28702C25.4668 9.20119 24.7874 11.0638 23.513 12.4932L12.913 23.1082L2.31546 12.4932C1.03953 11.0631 0.359466 9.19885 0.414882 7.28314C0.470299 5.36742 1.25699 3.5456 2.61346 2.1917C3.96992 0.837793 5.79322 0.0545409 7.70904 0.00274256C9.62486 -0.0490558 11.4878 0.63453 12.9155 1.91316ZM21.448 3.96441C20.5446 3.06262 19.3306 2.54044 18.0547 2.50488C16.7788 2.46933 15.5376 2.92308 14.5855 3.77316L12.9167 5.27066L11.2467 3.77441C10.2988 2.92677 9.06354 2.47215 7.79229 2.50306C6.52105 2.53397 5.30934 3.04808 4.40374 3.94078C3.49814 4.83348 2.9667 6.03768 2.91756 7.30835C2.86841 8.57903 3.30526 9.82068 4.13921 10.7807L12.9142 19.5694L21.6892 10.7819C22.5197 9.82617 22.9566 8.59096 22.9118 7.32563C22.867 6.06029 22.3439 4.85906 21.448 3.96441Z" fill="white"/>
</svg>
